<?xml version="1.0" standalone="no"?>
<!DOCTYPE svg PUBLIC "-//W3C//DTD SVG 20010904//EN"
 "http://www.w3.org/TR/2001/REC-SVG-20010904/DTD/svg10.dtd">
<svg version="1.0" xmlns="http://www.w3.org/2000/svg"
 width="1024.000000pt" height="1024.000000pt" viewBox="0 0 1024.000000 1024.000000"
 preserveAspectRatio="xMidYMid meet">

<g transform="translate(0.000000,1024.000000) scale(0.100000,-0.100000)"
fill="#000000" stroke="none">
<path d="M5965 7417 c-126 -42 -203 -135 -221 -266 -18 -136 96 -293 233 -322
111 -23 239 32 301 128 100 156 48 360 -111 437 -64 31 -148 41 -202 23z m198
-45 c54 -29 105 -87 128 -142 8 -19 14 -66 14 -105 0 -164 -112 -275 -277
-275 -104 0 -204 71 -243 173 -23 61 -17 175 13 233 69 135 234 188 365 116z"/>
<path d="M3939 7371 c-130 -41 -218 -137 -255 -276 -20 -74 -20 -878 0 -953
27 -101 82 -169 183 -229 l48 -28 450 -3 449 -3 65 -32 c146 -71 301 -21 367
118 33 69 34 175 2 225 -19 31 -22 49 -22 160 l-1 125 -135 0 -135 0 -5 -74
-5 -74 -44 -15 c-55 -18 -139 -99 -147 -142 l-6 -30 -377 0 c-341 0 -378 2
-397 18 -43 34 -44 43 -44 482 l0 422 34 34 34 34 444 0 c486 0 471 2 503 -60
8 -15 18 -53 21 -84 l7 -56 125 0 125 0 -5 89 c-9 155 -83 267 -221 336 l-70
35 -466 -1 c-419 0 -472 -2 -522 -18z m1044 -33 c77 -36 159 -120 185 -191 11
-29 24 -86 28 -126 l7 -72 -104 3 -104 3 -6 42 c-8 62 -37 117 -72 138 -29 17
-61 19 -472 19 -414 1 -442 0 -471 -18 -17 -10 -40 -33 -50 -50 -18 -29 -19
-57 -19 -458 0 -416 1 -427 21 -455 45 -62 51 -63 461 -63 l372 0 11 39 c15
56 85 126 140 141 25 7 51 14 58 16 8 2 12 26 12 72 l0 69 46 7 c26 3 75 6
110 6 l64 0 0 -114 c0 -105 2 -119 26 -163 22 -42 25 -57 21 -116 -5 -82 -41
-146 -106 -192 -37 -26 -53 -30 -119 -33 -69 -3 -82 -1 -127 25 l-50 28 -455
5 -455 5 -56 27 c-38 19 -70 46 -102 85 -82 102 -81 92 -85 568 -2 293 0 438
8 480 28 142 116 243 249 286 51 17 96 18 516 16 l460 -2 58 -27z"/>
<path d="M4277 7073 c-4 -3 -7 -54 -7 -112 l0 -106 -35 -23 c-67 -46 -116
-138 -115 -216 1 -49 32 -122 72 -170 108 -128 326 -135 447 -15 19 19 43 53
53 77 l19 42 357 0 c392 0 386 1 417 -60 13 -24 15 -94 15 -432 0 -381 -1
-405 -20 -435 -35 -59 -28 -58 -472 -58 l-408 0 -30 31 c-28 27 -32 39 -37
108 l-6 77 -131 -3 -131 -3 -3 -45 c-5 -63 15 -165 44 -226 33 -70 115 -145
187 -172 56 -21 71 -22 510 -22 449 0 452 1 508 24 31 12 71 33 88 45 48 34
106 113 133 178 22 57 23 68 26 458 2 241 -1 431 -7 477 -17 129 -85 233 -183
284 -78 40 -119 44 -518 44 l-385 0 -67 33 -67 32 -1 98 0 97 -123 0 c-68 0
-127 -3 -130 -7z m233 -108 l0 -94 47 -21 c26 -11 55 -28 64 -36 15 -14 72
-16 431 -17 399 -2 415 -3 466 -24 122 -50 193 -149 212 -293 16 -126 12 -772
-5 -854 -25 -120 -93 -208 -205 -267 l-45 -24 -456 -3 c-441 -3 -458 -2 -512
18 -121 46 -203 161 -218 311 -4 45 -6 86 -3 91 3 4 54 8 113 8 l108 0 5 -70
c3 -41 12 -80 22 -96 36 -53 51 -55 494 -52 449 3 433 1 475 68 22 35 22 41
22 435 0 359 -2 405 -18 446 -31 81 -27 80 -447 77 l-365 -3 -25 -47 c-47 -87
-100 -127 -196 -148 -104 -23 -235 35 -291 130 -28 46 -33 64 -33 117 0 35 6
78 14 96 15 36 80 104 107 112 17 6 19 18 19 121 l0 114 110 0 110 0 0 -95z"/>
<path d="M6157 6833 c-4 -3 -7 -14 -7 -24 0 -41 -207 -53 -264 -15 l-26 16 0
-750 0 -750 155 0 155 0 0 765 c0 421 -1 765 -3 765 -2 0 -7 -3 -10 -7z m-112
-89 c33 3 70 9 83 12 l22 6 0 -718 0 -719 -135 3 -135 3 0 718 0 718 53 -14
c32 -9 75 -12 112 -9z"/>
<path d="M1243 4799 c-75 -13 -149 -45 -220 -95 -144 -103 -223 -275 -223
-489 0 -174 46 -301 148 -408 112 -117 247 -167 450 -167 193 0 340 43 432
126 63 57 70 82 70 239 0 116 -3 141 -20 175 -33 65 -53 70 -265 70 -184 0
-186 0 -210 -25 -31 -30 -33 -82 -4 -119 20 -26 22 -26 155 -26 l134 0 0 -70
c0 -80 -15 -118 -58 -148 -83 -59 -285 -70 -392 -21 -78 36 -125 81 -160 152
-73 151 -61 377 26 507 30 44 95 95 142 112 21 7 80 13 137 13 92 0 104 -2
154 -30 51 -28 120 -104 121 -132 0 -25 61 -63 100 -63 79 0 116 71 89 167
-17 62 -106 153 -183 189 -107 49 -281 67 -423 43z"/>
<path d="M2390 4793 c-176 -48 -269 -165 -258 -322 8 -115 68 -197 182 -250
34 -16 126 -46 206 -66 163 -42 206 -61 243 -104 32 -39 41 -79 27 -130 -22
-83 -126 -130 -258 -118 -122 12 -179 56 -222 170 -24 64 -41 77 -98 77 -122
0 -133 -151 -20 -276 83 -90 206 -134 383 -134 206 0 350 71 415 205 19 40 24
66 24 135 1 107 -25 172 -93 232 -59 52 -122 80 -268 118 -200 53 -239 68
-273 106 -54 61 -35 140 43 181 43 23 177 22 232 -1 49 -21 100 -68 116 -110
22 -57 48 -76 99 -76 148 0 136 203 -17 301 -88 55 -147 71 -278 75 -93 3
-135 0 -185 -13z"/>
<path d="M3334 4800 c-12 -4 -31 -21 -43 -36 -22 -27 -22 -27 -19 -545 l3
-519 26 -26 c18 -18 41 -28 73 -31 42 -5 48 -3 81 30 l35 35 1 169 c4 532 -2
855 -16 883 -21 41 -90 61 -141 40z"/>
<path d="M9285 4801 c-11 -5 -29 -19 -40 -31 -19 -21 -20 -38 -23 -519 -2
-324 1 -508 7 -532 15 -49 42 -70 95 -76 42 -5 48 -3 81 30 l36 36 -3 521 -3
522 -33 29 c-33 30 -75 37 -117 20z"/>
<path d="M4859 4765 c-38 -20 -49 -63 -49 -181 l0 -104 -39 0 c-56 0 -94 -34
-94 -83 0 -54 25 -77 84 -77 l48 0 3 -267 c3 -239 5 -272 22 -303 44 -82 103
-110 235 -110 96 0 147 14 183 50 34 35 36 70 4 107 l-24 27 -66 -13 c-86 -17
-121 -5 -136 48 -5 20 -10 132 -10 249 l0 212 70 0 c63 0 74 3 97 26 21 21 25
32 20 66 -7 55 -28 67 -114 68 l-73 0 0 119 c0 117 0 119 -29 150 -23 25 -37
31 -68 31 -21 -1 -50 -7 -64 -15z"/>
<path d="M4142 4485 c-63 -18 -114 -51 -147 -94 l-23 -32 -7 40 c-4 22 -16 52
-27 66 -16 21 -28 25 -72 25 -44 0 -57 -4 -77 -26 l-24 -26 -3 -341 c-3 -353
1 -398 37 -431 26 -23 84 -31 121 -16 55 23 60 47 60 277 1 227 8 280 47 331
69 91 227 82 271 -16 14 -30 18 -83 22 -290 l5 -254 33 -29 c52 -46 128 -36
157 21 14 28 16 69 13 313 -3 262 -5 285 -25 328 -30 66 -76 113 -131 137 -66
29 -163 36 -230 17z"/>
<path d="M5650 4491 c-116 -22 -211 -95 -265 -204 -85 -174 -64 -390 51 -516
78 -87 193 -131 337 -131 177 0 306 60 357 165 27 55 21 89 -20 110 -52 27
-76 20 -138 -44 -42 -43 -69 -62 -101 -71 -93 -25 -202 -8 -255 38 -26 23 -66
111 -66 145 0 26 2 27 58 28 199 2 452 10 479 14 18 3 39 16 48 28 35 50 4
213 -55 295 -38 53 -97 96 -166 122 -62 23 -195 33 -264 21z m188 -162 c53
-20 92 -76 106 -151 l7 -38 -201 0 -200 0 0 23 c0 30 42 118 68 140 47 42 147
54 220 26z"/>
<path d="M6582 4486 c-159 -40 -259 -177 -269 -371 -9 -155 34 -283 123 -365
73 -67 122 -85 234 -85 112 0 161 18 235 86 l46 42 -6 -89 c-7 -116 -32 -169
-97 -202 -35 -18 -62 -24 -112 -23 -105 1 -144 15 -204 77 -29 30 -63 59 -76
64 -30 11 -70 2 -95 -21 -85 -79 24 -214 209 -260 76 -19 260 -16 331 5 111
32 193 107 229 209 19 53 20 82 20 463 0 459 1 454 -73 476 -55 16 -86 -3
-112 -68 l-20 -50 -23 28 c-60 72 -225 113 -340 84z m235 -171 c48 -20 71 -41
95 -89 48 -94 42 -250 -12 -325 -72 -98 -246 -107 -316 -16 -70 92 -72 279 -4
374 46 65 154 90 237 56z"/>
<path d="M7764 4489 c-45 -10 -119 -68 -129 -99 -9 -28 -25 -25 -25 5 0 33
-25 81 -45 89 -38 14 -94 6 -122 -18 l-28 -24 0 -365 c0 -355 1 -366 21 -394
25 -33 82 -51 121 -37 14 5 35 22 47 37 20 26 21 44 26 265 4 211 7 241 25
277 38 77 132 108 206 69 77 -39 139 -3 139 81 0 36 -5 47 -32 70 -18 15 -41
30 -52 35 -39 14 -111 18 -152 9z"/>
<path d="M8470 4489 c-103 -17 -211 -84 -246 -151 -34 -66 -9 -144 52 -161 48
-14 80 5 109 67 22 48 33 59 81 82 48 23 63 26 127 22 81 -5 119 -24 143 -69
15 -30 20 -109 6 -109 -5 0 -60 -7 -123 -15 -327 -43 -450 -129 -437 -306 6
-80 43 -133 123 -174 55 -28 65 -30 174 -30 106 0 121 2 171 27 30 15 69 41
87 58 18 16 34 30 36 30 2 0 9 -17 15 -38 18 -59 43 -76 114 -77 51 0 63 3 79
24 23 28 24 59 4 125 -11 36 -15 99 -15 232 0 242 -18 322 -87 385 -79 74
-245 105 -413 78z m290 -461 c0 -48 -23 -132 -42 -159 -39 -52 -103 -84 -173
-84 -75 0 -121 19 -141 58 -34 64 9 131 101 161 102 32 255 47 255 24z"/>
</g>
</svg>
