<svg xmlns="http://www.w3.org/2000/svg" viewBox="0 0 256 256">
  <!-- El badge lleva su propio fondo a proposito: Chrome no aplica prefers-color-scheme
       dentro de favicons SVG, asi que un icono sin fondo desaparece en pestaña oscura.
       Letras GS tomadas del wordmark de src/app/shared/logo/logo.svg; el monograma
       de marca es line-art y a 16px se vuelve ilegible. -->
  <rect width="256" height="256" rx="56" fill="#0b1f33"/>
  <g transform="translate(-30.76,-372.78) scale(0.8325) translate(0,1024) scale(0.1,-0.1)" fill="#ffffff">
    <path d="M1243 4799 c-75 -13 -149 -45 -220 -95 -144 -103 -223 -275 -223
-489 0 -174 46 -301 148 -408 112 -117 247 -167 450 -167 193 0 340 43 432
126 63 57 70 82 70 239 0 116 -3 141 -20 175 -33 65 -53 70 -265 70 -184 0
-186 0 -210 -25 -31 -30 -33 -82 -4 -119 20 -26 22 -26 155 -26 l134 0 0 -70
c0 -80 -15 -118 -58 -148 -83 -59 -285 -70 -392 -21 -78 36 -125 81 -160 152
-73 151 -61 377 26 507 30 44 95 95 142 112 21 7 80 13 137 13 92 0 104 -2
154 -30 51 -28 120 -104 121 -132 0 -25 61 -63 100 -63 79 0 116 71 89 167
-17 62 -106 153 -183 189 -107 49 -281 67 -423 43z"/>
    <path d="M2390 4793 c-176 -48 -269 -165 -258 -322 8 -115 68 -197 182 -250
34 -16 126 -46 206 -66 163 -42 206 -61 243 -104 32 -39 41 -79 27 -130 -22
-83 -126 -130 -258 -118 -122 12 -179 56 -222 170 -24 64 -41 77 -98 77 -122
0 -133 -151 -20 -276 83 -90 206 -134 383 -134 206 0 350 71 415 205 19 40 24
66 24 135 1 107 -25 172 -93 232 -59 52 -122 80 -268 118 -200 53 -239 68
-273 106 -54 61 -35 140 43 181 43 23 177 22 232 -1 49 -21 100 -68 116 -110
22 -57 48 -76 99 -76 148 0 136 203 -17 301 -88 55 -147 71 -278 75 -93 3
-135 0 -185 -13z"/>
  </g>
</svg>
