<svg xmlns="http://www.w3.org/2000/svg" viewBox="0 0 459 347" width="459" height="347">
  <style>path{fill:#0b1f33}@media (prefers-color-scheme:dark){path{fill:#f5f7fb}}</style>
  <path d="M367.14,119.01 C365.86,118.20 363.94,118.74 361.73,118.94 C359.52,119.15 356.62,119.97 353.88,120.25 C351.15,120.53 348.02,120.47 345.31,120.62 C342.59,120.77 339.73,120.54 337.58,121.16 C335.44,121.78 333.63,122.69 332.44,124.34 C331.24,125.99 330.81,128.52 330.41,131.07 C330.01,133.62 330.10,136.73 330.03,139.66 C329.96,142.58 330.00,145.64 330.00,148.64 C330.00,151.63 330.00,154.64 330.00,157.65 C330.00,160.65 330.00,163.65 330.00,166.66 C330.00,169.66 330.00,172.67 330.00,175.67 C330.00,178.67 330.00,181.68 330.00,184.68 C330.00,187.68 330.00,190.69 330.00,193.69 C330.00,196.69 330.00,199.70 330.00,202.70 C330.00,205.70 330.00,208.71 330.00,211.71 C330.00,214.72 330.00,217.72 330.00,220.72 C330.00,223.73 330.00,226.73 330.00,229.73 C330.00,232.74 330.00,235.74 330.00,238.74 C330.00,241.75 330.00,244.75 330.00,247.75 C330.00,250.76 330.00,253.76 330.00,256.77 C330.00,259.77 330.00,262.77 330.00,265.78 C330.00,268.78 330.00,271.78 330.00,274.79 C330.00,277.79 330.00,280.80 330.00,283.80 C330.01,286.80 329.96,289.84 330.03,292.79 C330.10,295.74 330.01,298.83 330.42,301.50 C330.84,304.17 331.28,306.86 332.50,308.81 C333.72,310.76 335.57,312.20 337.75,313.18 C339.93,314.16 342.83,314.44 345.59,314.70 C348.34,314.97 351.49,314.96 354.29,314.77 C357.09,314.57 360.08,314.39 362.38,313.54 C364.69,312.68 366.74,311.46 368.09,309.64 C369.44,307.82 370.00,305.23 370.48,302.62 C370.96,300.01 370.87,296.92 370.96,293.98 C371.04,291.04 370.99,287.99 371.00,284.99 C371.01,282.00 371.00,278.99 371.00,275.98 C371.00,272.98 371.00,269.98 371.00,266.97 C371.00,263.97 371.00,260.97 371.00,257.96 C371.00,254.96 371.00,251.95 371.00,248.95 C371.00,245.95 371.00,242.94 371.00,239.94 C371.00,236.94 371.00,233.93 371.00,230.93 C371.00,227.93 371.00,224.92 371.00,221.92 C371.00,218.92 371.00,215.91 371.00,212.91 C371.00,209.90 371.00,206.90 371.00,203.90 C371.00,200.89 371.00,197.89 370.99,194.89 C370.98,191.88 370.98,188.88 370.93,185.88 C370.88,182.88 370.80,179.88 370.69,176.88 C370.59,173.88 370.41,170.89 370.30,167.89 C370.20,164.90 370.11,161.90 370.06,158.90 C370.01,155.90 370.02,152.89 370.01,149.89 C369.99,146.89 370.01,143.87 370.00,140.88 C369.99,137.89 370.04,134.79 369.94,131.94 C369.85,129.09 369.90,125.95 369.44,123.80 C368.97,121.65 368.42,119.82 367.14,119.01 Z M335.87,126.23 C337.44,124.84 339.81,124.33 342.27,123.91 C344.74,123.49 347.86,123.65 350.65,123.71 C353.43,123.77 356.54,123.72 358.98,124.27 C361.42,124.82 363.75,125.50 365.29,127.01 C366.82,128.51 367.61,130.85 368.21,133.31 C368.82,135.77 368.78,138.87 368.91,141.77 C369.04,144.67 368.98,147.73 369.00,150.72 C369.01,153.71 369.00,156.72 369.00,159.71 C369.00,162.71 369.00,165.71 369.00,168.71 C369.00,171.71 369.00,174.71 369.00,177.71 C369.00,180.70 369.00,183.70 369.00,186.70 C369.00,189.70 369.00,192.70 369.00,195.70 C369.00,198.70 369.00,201.69 369.00,204.69 C369.00,207.69 369.00,210.69 369.00,213.69 C369.00,216.69 369.00,219.69 369.00,222.68 C369.00,225.68 369.00,228.68 369.00,231.68 C369.00,234.68 369.00,237.68 369.00,240.68 C369.00,243.67 369.00,246.67 369.00,249.67 C369.00,252.67 369.00,255.67 369.00,258.67 C369.00,261.67 369.00,264.66 369.00,267.66 C369.00,270.66 369.00,273.66 369.00,276.66 C369.00,279.66 369.01,282.66 369.00,285.65 C368.98,288.65 369.04,291.70 368.90,294.61 C368.76,297.52 368.78,300.60 368.16,303.12 C367.54,305.63 366.72,308.07 365.16,309.71 C363.60,311.35 361.24,312.30 358.79,312.95 C356.33,313.60 353.21,313.67 350.43,313.59 C347.65,313.52 344.54,313.30 342.09,312.51 C339.65,311.72 337.32,310.61 335.78,308.87 C334.23,307.13 333.43,304.63 332.82,302.08 C332.21,299.52 332.23,296.44 332.09,293.52 C331.96,290.60 332.02,287.56 332.00,284.57 C331.99,281.57 332.00,278.57 332.00,275.57 C332.00,272.57 332.00,269.57 332.00,266.58 C332.00,263.58 332.00,260.58 332.00,257.58 C332.00,254.58 332.00,251.58 332.00,248.58 C332.00,245.59 332.00,242.59 332.00,239.59 C332.00,236.59 332.00,233.59 332.00,230.59 C332.00,227.59 332.00,224.60 332.00,221.60 C332.00,218.60 332.00,215.60 332.00,212.60 C332.00,209.60 332.00,206.60 332.00,203.61 C332.00,200.61 332.00,197.61 332.00,194.61 C332.00,191.61 332.00,188.61 332.00,185.61 C332.00,182.62 332.00,179.62 332.00,176.62 C332.00,173.62 332.00,170.62 332.00,167.62 C332.00,164.62 332.00,161.62 332.00,158.63 C332.00,155.63 331.99,152.62 332.00,149.63 C332.02,146.64 331.96,143.58 332.10,140.69 C332.24,137.80 332.21,134.70 332.84,132.30 C333.47,129.89 334.30,127.63 335.87,126.23 Z" fill="#000" fill-rule="evenodd"/>
  <path d="M124.83,82.87 C122.81,84.14 121.25,86.08 120.13,88.29 C119.01,90.50 118.73,93.42 118.11,96.11 C117.49,98.81 117.30,101.78 116.43,104.44 C115.57,107.11 114.36,109.63 112.94,112.08 C111.52,114.53 109.54,116.73 107.92,119.14 C106.31,121.55 104.52,123.96 103.25,126.55 C101.99,129.15 100.91,131.92 100.34,134.71 C99.77,137.49 99.58,140.44 99.81,143.27 C100.05,146.11 100.77,149.00 101.75,151.70 C102.74,154.41 104.12,157.09 105.72,159.50 C107.32,161.92 109.23,164.22 111.35,166.17 C113.47,168.13 115.90,169.86 118.43,171.26 C120.96,172.66 123.74,173.76 126.54,174.57 C129.34,175.38 132.30,175.89 135.20,176.10 C138.11,176.31 141.11,176.24 143.99,175.83 C146.87,175.43 149.78,174.70 152.49,173.67 C155.20,172.64 157.85,171.26 160.26,169.65 C162.68,168.05 164.86,166.02 166.98,164.04 C169.10,162.06 170.89,159.63 172.98,157.76 C175.07,155.89 177.12,154.02 179.53,152.82 C181.95,151.63 184.69,151.03 187.48,150.57 C190.27,150.11 193.31,150.15 196.28,150.06 C199.24,149.96 202.27,150.01 205.26,150.00 C208.26,149.99 211.27,150.00 214.27,150.00 C217.27,150.00 220.28,150.00 223.28,150.00 C226.28,150.00 229.28,150.00 232.28,150.00 C235.29,150.00 238.29,149.99 241.29,150.00 C244.29,150.01 247.30,149.98 250.29,150.06 C253.28,150.14 256.32,150.14 259.22,150.46 C262.13,150.79 265.14,151.11 267.74,152.01 C270.34,152.92 272.89,154.14 274.82,155.88 C276.76,157.62 278.25,159.98 279.33,162.47 C280.42,164.95 280.90,167.92 281.33,170.78 C281.76,173.65 281.79,176.69 281.90,179.68 C282.01,182.66 281.98,185.67 281.99,188.67 C282.01,191.67 282.00,194.68 282.00,197.68 C282.00,200.68 282.00,203.68 282.00,206.69 C282.00,209.69 282.00,212.69 282.00,215.69 C282.00,218.69 282.00,221.70 282.00,224.70 C282.00,227.70 282.00,230.70 282.00,233.71 C282.00,236.71 282.01,239.71 281.99,242.71 C281.98,245.71 282.02,248.73 281.91,251.71 C281.80,254.69 281.78,257.73 281.36,260.60 C280.93,263.48 280.46,266.44 279.38,268.95 C278.31,271.46 276.84,273.87 274.93,275.66 C273.02,277.46 270.50,278.75 267.92,279.71 C265.34,280.68 262.35,281.07 259.45,281.43 C256.55,281.80 253.51,281.82 250.53,281.92 C247.54,282.01 244.53,281.98 241.53,281.99 C238.53,282.01 235.52,282.00 232.52,282.00 C229.52,282.00 226.52,282.00 223.52,282.00 C220.51,282.00 217.51,282.00 214.51,282.00 C211.51,282.00 208.50,282.00 205.50,282.00 C202.50,282.00 199.50,282.00 196.50,282.00 C193.49,282.00 190.49,282.01 187.49,281.99 C184.49,281.97 181.47,282.03 178.51,281.87 C175.56,281.72 172.53,281.66 169.78,281.07 C167.03,280.48 164.25,279.70 162.01,278.30 C159.77,276.91 157.86,274.87 156.33,272.69 C154.79,270.52 153.99,267.60 152.82,265.26 C151.64,262.91 150.86,260.32 149.26,258.62 C147.66,256.92 145.58,255.77 143.23,255.04 C140.87,254.30 137.86,254.19 135.13,254.21 C132.41,254.22 129.29,254.39 126.88,255.11 C124.48,255.84 122.16,256.87 120.72,258.55 C119.29,260.24 118.60,262.71 118.27,265.23 C117.94,267.74 118.31,270.81 118.75,273.65 C119.18,276.48 119.94,279.45 120.88,282.24 C121.82,285.03 122.98,287.80 124.37,290.38 C125.77,292.97 127.41,295.47 129.26,297.74 C131.11,300.02 133.21,302.16 135.45,304.03 C137.70,305.90 140.17,307.60 142.74,308.98 C145.31,310.37 148.07,311.49 150.87,312.36 C153.68,313.22 156.62,313.75 159.55,314.16 C162.49,314.57 165.49,314.69 168.48,314.83 C171.46,314.97 174.47,314.95 177.47,314.98 C180.47,315.01 183.48,315.00 186.48,315.00 C189.48,315.00 192.48,315.00 195.48,315.00 C198.49,315.00 201.49,315.00 204.49,315.00 C207.49,315.00 210.49,315.00 213.50,315.00 C216.50,315.00 219.50,315.00 222.50,315.00 C225.51,315.00 228.51,315.00 231.51,315.00 C234.51,315.00 237.51,315.00 240.52,315.00 C243.52,315.00 246.52,315.01 249.52,315.00 C252.52,314.98 255.53,315.01 258.52,314.93 C261.52,314.85 264.52,314.80 267.48,314.51 C270.44,314.23 273.41,313.86 276.28,313.19 C279.15,312.52 282.00,311.64 284.70,310.49 C287.39,309.34 290.02,307.92 292.45,306.28 C294.88,304.64 297.17,302.72 299.27,300.66 C301.36,298.59 303.30,296.30 305.02,293.90 C306.73,291.51 308.28,288.94 309.55,286.29 C310.82,283.64 311.85,280.84 312.64,278.00 C313.43,275.16 313.92,272.21 314.29,269.27 C314.66,266.32 314.75,263.32 314.87,260.33 C315.00,257.34 314.97,254.33 315.03,251.34 C315.09,248.34 315.13,245.34 315.22,242.34 C315.31,239.34 315.46,236.35 315.57,233.35 C315.68,230.36 315.79,227.36 315.86,224.36 C315.93,221.37 315.96,218.36 315.98,215.36 C316.00,212.36 316.00,209.36 316.00,206.36 C316.00,203.36 316.00,200.35 315.98,197.35 C315.96,194.35 315.95,191.35 315.89,188.35 C315.82,185.35 315.72,182.35 315.60,179.36 C315.48,176.36 315.34,173.37 315.15,170.38 C314.96,167.40 314.82,164.40 314.45,161.44 C314.09,158.49 313.67,155.53 312.96,152.65 C312.26,149.78 311.36,146.93 310.22,144.21 C309.07,141.49 307.71,138.82 306.12,136.36 C304.53,133.89 302.71,131.51 300.68,129.41 C298.66,127.31 296.38,125.39 293.96,123.76 C291.55,122.13 288.90,120.75 286.19,119.64 C283.48,118.53 280.60,117.75 277.71,117.11 C274.83,116.47 271.84,116.12 268.88,115.81 C265.91,115.50 262.91,115.36 259.92,115.23 C256.93,115.10 253.92,115.07 250.92,115.04 C247.92,115.00 244.92,115.01 241.92,115.00 C238.92,115.00 235.92,115.00 232.91,115.00 C229.91,115.00 226.91,115.00 223.91,115.00 C220.91,115.00 217.90,115.00 214.90,115.00 C211.90,115.00 208.90,115.00 205.89,115.00 C202.89,115.00 199.89,115.01 196.89,115.00 C193.89,114.99 190.88,115.02 187.89,114.95 C184.90,114.87 181.88,114.87 178.95,114.57 C176.01,114.27 173.03,113.91 170.26,113.13 C167.49,112.35 164.66,111.31 162.32,109.89 C159.98,108.46 157.80,106.67 156.23,104.56 C154.67,102.45 153.81,99.78 152.93,97.24 C152.06,94.70 151.92,91.65 150.99,89.33 C150.06,87.00 149.08,84.74 147.35,83.30 C145.62,81.86 143.10,81.14 140.59,80.69 C138.08,80.25 134.91,80.26 132.28,80.62 C129.65,80.99 126.86,81.59 124.83,82.87 Z M123.83,86.32 C125.41,84.68 127.79,83.68 130.19,83.09 C132.59,82.50 135.76,82.42 138.23,82.80 C140.71,83.18 143.29,83.94 145.06,85.37 C146.84,86.79 147.89,89.06 148.88,91.37 C149.87,93.68 150.06,96.72 151.00,99.23 C151.93,101.73 152.86,104.34 154.49,106.39 C156.11,108.44 158.37,110.13 160.75,111.52 C163.14,112.90 166.00,113.91 168.79,114.70 C171.59,115.50 174.57,115.94 177.52,116.30 C180.46,116.66 183.48,116.74 186.48,116.86 C189.47,116.97 192.49,116.96 195.49,116.98 C198.50,117.01 201.51,117.00 204.52,117.00 C207.53,117.00 210.54,117.00 213.55,117.00 C216.56,117.00 219.56,117.00 222.57,117.00 C225.58,117.00 228.59,117.00 231.60,117.00 C234.61,117.00 237.62,117.00 240.63,117.00 C243.63,117.01 246.64,117.00 249.65,117.04 C252.66,117.08 255.67,117.12 258.66,117.25 C261.66,117.38 264.67,117.51 267.64,117.82 C270.60,118.13 273.59,118.46 276.46,119.12 C279.34,119.78 282.19,120.63 284.88,121.79 C287.57,122.95 290.20,124.40 292.60,126.07 C295.01,127.74 297.30,129.68 299.32,131.80 C301.34,133.92 303.17,136.28 304.73,138.77 C306.30,141.25 307.60,143.94 308.69,146.68 C309.77,149.42 310.57,152.32 311.24,155.21 C311.91,158.11 312.34,161.08 312.72,164.05 C313.09,167.02 313.32,170.02 313.51,173.01 C313.70,176.01 313.79,179.01 313.87,182.02 C313.95,185.02 313.96,188.03 313.98,191.04 C314.00,194.05 314.00,197.05 314.00,200.06 C314.00,203.07 314.00,206.08 314.00,209.09 C314.00,212.10 314.00,215.11 314.00,218.12 C314.00,221.13 314.00,224.13 314.00,227.14 C313.99,230.15 313.99,233.16 313.95,236.17 C313.90,239.17 313.84,242.18 313.73,245.18 C313.62,248.18 313.47,251.18 313.30,254.18 C313.13,257.18 312.99,260.18 312.69,263.16 C312.40,266.13 312.10,269.12 311.52,272.03 C310.93,274.94 310.19,277.85 309.18,280.62 C308.17,283.39 306.91,286.12 305.44,288.67 C303.96,291.22 302.23,293.67 300.33,295.92 C298.43,298.17 296.29,300.28 294.03,302.17 C291.76,304.06 289.31,305.81 286.75,307.23 C284.20,308.66 281.49,309.88 278.71,310.74 C275.93,311.61 273.00,312.08 270.07,312.44 C267.14,312.81 264.13,312.83 261.13,312.92 C258.14,313.02 255.13,312.98 252.12,313.00 C249.11,313.01 246.10,313.00 243.09,313.00 C240.08,313.00 237.07,313.00 234.07,313.00 C231.06,313.00 228.05,313.00 225.04,313.00 C222.03,313.00 219.02,313.00 216.01,313.00 C213.00,313.00 209.99,313.00 206.99,313.00 C203.98,313.00 200.97,313.00 197.96,313.00 C194.95,313.00 191.94,313.00 188.93,313.00 C185.92,313.00 182.91,313.01 179.91,312.99 C176.90,312.98 173.88,313.01 170.89,312.92 C167.89,312.82 164.88,312.77 161.93,312.43 C158.99,312.08 156.03,311.64 153.22,310.83 C150.41,310.02 147.64,308.92 145.07,307.55 C142.50,306.17 140.05,304.45 137.80,302.57 C135.55,300.68 133.46,298.52 131.60,296.24 C129.74,293.96 128.08,291.47 126.66,288.89 C125.25,286.30 124.05,283.53 123.12,280.76 C122.19,277.98 121.39,275.00 121.09,272.26 C120.78,269.51 120.64,266.58 121.29,264.29 C121.93,262.00 123.19,259.90 124.98,258.51 C126.76,257.12 129.46,256.33 131.97,255.95 C134.49,255.56 137.62,255.61 140.05,256.20 C142.48,256.78 144.82,257.84 146.54,259.47 C148.26,261.09 149.19,263.61 150.39,265.95 C151.59,268.30 152.30,271.27 153.75,273.53 C155.19,275.80 156.92,277.99 159.07,279.52 C161.23,281.05 163.94,281.99 166.65,282.70 C169.37,283.41 172.42,283.55 175.37,283.76 C178.32,283.98 181.35,283.94 184.36,283.98 C187.36,284.02 190.37,283.99 193.38,284.00 C196.39,284.00 199.40,284.00 202.41,284.00 C205.42,284.00 208.42,284.00 211.43,284.00 C214.44,284.00 217.45,284.00 220.46,284.00 C223.47,284.00 226.48,284.00 229.49,284.00 C232.49,284.00 235.50,284.00 238.51,284.00 C241.52,283.99 244.53,284.01 247.54,283.96 C250.54,283.92 253.57,283.93 256.54,283.74 C259.51,283.55 262.56,283.42 265.36,282.83 C268.17,282.25 271.04,281.54 273.38,280.23 C275.71,278.92 277.84,277.10 279.39,274.97 C280.95,272.83 281.94,270.10 282.69,267.40 C283.44,264.69 283.63,261.66 283.92,258.72 C284.20,255.78 284.26,252.75 284.41,249.76 C284.55,246.76 284.68,243.76 284.77,240.75 C284.87,237.75 284.92,234.74 284.96,231.74 C285.00,228.73 284.99,225.72 285.00,222.71 C285.00,219.70 285.00,216.70 284.99,213.69 C284.98,210.68 284.97,207.67 284.92,204.66 C284.86,201.66 284.77,198.65 284.66,195.65 C284.55,192.65 284.39,189.65 284.27,186.65 C284.15,183.65 284.11,180.63 283.94,177.65 C283.77,174.67 283.72,171.62 283.25,168.76 C282.78,165.90 282.23,162.94 281.10,160.47 C279.96,158.01 278.41,155.68 276.44,153.97 C274.46,152.26 271.87,151.11 269.24,150.23 C266.61,149.35 263.59,149.04 260.66,148.69 C257.74,148.35 254.70,148.28 251.71,148.17 C248.71,148.06 245.70,148.05 242.69,148.03 C239.68,148.00 236.67,148.00 233.67,148.01 C230.66,148.02 227.65,148.03 224.64,148.08 C221.64,148.14 218.63,148.24 215.63,148.34 C212.63,148.45 209.63,148.62 206.63,148.72 C203.62,148.83 200.61,148.87 197.62,148.96 C194.63,149.05 191.59,148.98 188.71,149.27 C185.83,149.56 182.92,149.82 180.34,150.69 C177.75,151.57 175.40,152.91 173.18,154.53 C170.96,156.15 169.12,158.44 167.03,160.41 C164.93,162.38 162.92,164.62 160.60,166.36 C158.29,168.11 155.77,169.70 153.13,170.89 C150.49,172.07 147.63,172.96 144.78,173.47 C141.94,173.97 138.94,174.13 136.06,173.94 C133.17,173.75 130.23,173.18 127.48,172.30 C124.72,171.42 122.01,170.16 119.52,168.66 C117.04,167.16 114.65,165.31 112.57,163.29 C110.49,161.27 108.55,158.97 107.03,156.53 C105.51,154.09 104.25,151.39 103.47,148.65 C102.69,145.92 102.30,142.96 102.35,140.13 C102.41,137.30 102.93,134.37 103.81,131.66 C104.69,128.95 106.12,126.36 107.61,123.87 C109.09,121.39 111.13,119.15 112.72,116.75 C114.31,114.35 116.02,112.03 117.14,109.45 C118.26,106.87 118.84,104.04 119.44,101.28 C120.04,98.53 120.03,95.41 120.76,92.92 C121.49,90.43 122.26,87.96 123.83,86.32 Z" fill="#000" fill-rule="evenodd"/>
  <path d="M87.04,39.72 C84.08,40.02 81.12,40.38 78.25,41.02 C75.38,41.67 72.52,42.50 69.82,43.60 C67.11,44.71 64.47,46.08 62.02,47.67 C59.56,49.25 57.22,51.10 55.10,53.11 C52.99,55.13 51.04,57.38 49.32,59.75 C47.61,62.12 46.11,64.70 44.83,67.34 C43.55,69.98 42.49,72.77 41.65,75.59 C40.82,78.41 40.26,81.33 39.81,84.26 C39.36,87.18 39.18,90.16 38.96,93.13 C38.74,96.10 38.61,99.08 38.48,102.07 C38.35,105.05 38.23,108.03 38.16,111.02 C38.08,114.00 38.05,116.99 38.03,119.98 C38.00,122.97 38.01,125.96 38.00,128.95 C38.00,131.94 38.00,134.93 38.00,137.92 C38.00,140.91 38.00,143.90 38.00,146.89 C38.00,149.88 38.00,152.87 38.00,155.86 C38.01,158.85 38.00,161.84 38.04,164.83 C38.08,167.82 38.13,170.81 38.23,173.79 C38.32,176.77 38.46,179.76 38.61,182.74 C38.76,185.72 38.87,188.71 39.13,191.67 C39.38,194.63 39.61,197.60 40.16,200.50 C40.71,203.39 41.41,206.27 42.41,209.02 C43.42,211.76 44.70,214.45 46.21,216.95 C47.71,219.45 49.49,221.83 51.45,224.01 C53.40,226.18 55.60,228.20 57.92,229.97 C60.23,231.75 62.74,233.37 65.34,234.64 C67.94,235.90 70.71,236.88 73.52,237.57 C76.33,238.25 79.29,238.50 82.22,238.73 C85.16,238.97 88.17,238.93 91.15,238.98 C94.13,239.02 97.12,239.00 100.11,239.00 C103.10,239.00 106.09,239.00 109.08,239.00 C112.08,239.00 115.07,239.00 118.06,239.00 C121.05,239.00 124.04,239.00 127.03,239.00 C130.02,239.00 133.01,239.00 136.00,239.00 C138.99,239.00 141.98,239.00 144.97,239.00 C147.96,239.00 150.95,239.00 153.94,239.00 C156.93,239.00 159.92,238.99 162.91,239.00 C165.90,239.01 168.89,238.98 171.87,239.05 C174.85,239.11 177.85,239.12 180.79,239.39 C183.73,239.66 186.65,240.05 189.52,240.66 C192.40,241.27 195.19,242.26 198.03,243.08 C200.86,243.89 203.67,244.95 206.54,245.56 C209.40,246.17 212.33,246.70 215.21,246.76 C218.09,246.82 221.04,246.57 223.83,245.93 C226.61,245.29 229.40,244.26 231.91,242.91 C234.42,241.56 236.82,239.81 238.90,237.85 C240.97,235.88 242.83,233.55 244.34,231.12 C245.85,228.68 247.09,225.96 247.97,223.22 C248.84,220.48 249.40,217.56 249.60,214.69 C249.79,211.83 249.53,208.89 249.16,206.01 C248.80,203.12 247.96,200.26 247.41,197.37 C246.85,194.48 246.20,191.59 245.81,188.67 C245.42,185.75 245.32,182.72 245.05,179.85 C244.78,176.97 244.83,173.89 244.19,171.41 C243.54,168.92 242.74,166.54 241.18,164.95 C239.61,163.36 237.24,162.50 234.78,161.88 C232.33,161.27 229.20,161.21 226.43,161.26 C223.67,161.32 220.62,161.47 218.21,162.20 C215.81,162.94 213.66,164.04 211.99,165.67 C210.32,167.31 209.50,169.81 208.20,172.01 C206.90,174.21 205.85,176.79 204.19,178.90 C202.52,181.01 200.32,182.79 198.21,184.70 C196.11,186.61 193.70,188.39 191.56,190.35 C189.42,192.31 187.48,194.60 185.39,196.48 C183.30,198.37 181.36,200.37 179.01,201.66 C176.67,202.96 174.04,203.71 171.31,204.25 C168.58,204.79 165.56,204.79 162.62,204.91 C159.68,205.04 156.66,204.98 153.68,205.00 C150.69,205.01 147.70,205.00 144.71,205.00 C141.72,205.00 138.73,205.00 135.74,205.00 C132.75,205.00 129.76,205.00 126.77,205.00 C123.78,205.00 120.79,205.00 117.80,205.00 C114.81,205.00 111.82,205.01 108.83,205.00 C105.84,204.99 102.83,205.03 99.87,204.94 C96.91,204.85 93.86,204.88 91.05,204.46 C88.24,204.03 85.35,203.55 83.01,202.39 C80.66,201.23 78.54,199.54 76.99,197.48 C75.45,195.41 74.48,192.70 73.72,190.01 C72.96,187.33 72.70,184.31 72.43,181.38 C72.15,178.45 72.13,175.44 72.06,172.46 C71.99,169.48 72.01,166.48 72.00,163.49 C71.99,160.50 72.00,157.51 72.00,154.52 C72.00,151.53 72.00,148.54 72.00,145.55 C72.00,142.56 72.00,139.57 72.00,136.58 C72.00,133.59 72.00,130.60 72.00,127.61 C72.00,124.62 72.00,121.63 72.00,118.64 C72.00,115.65 71.99,112.66 72.00,109.67 C72.01,106.68 71.97,103.67 72.06,100.71 C72.15,97.75 72.12,94.71 72.55,91.90 C72.98,89.08 73.48,86.19 74.65,83.82 C75.81,81.45 77.50,79.27 79.55,77.68 C81.59,76.10 84.25,75.07 86.91,74.33 C89.56,73.58 92.56,73.42 95.47,73.20 C98.39,72.99 101.41,73.05 104.39,73.01 C107.37,72.98 110.37,73.00 113.35,73.00 C116.34,73.00 119.34,73.00 122.33,73.00 C125.32,73.00 128.31,73.00 131.30,73.00 C134.29,73.00 137.28,73.00 140.27,73.00 C143.26,73.00 146.25,73.00 149.24,73.00 C152.23,73.00 155.22,73.00 158.21,73.00 C161.20,73.00 164.19,73.00 167.18,73.00 C170.17,73.00 173.16,72.99 176.15,73.02 C179.13,73.05 182.15,73.01 185.08,73.21 C188.02,73.40 191.05,73.53 193.77,74.20 C196.50,74.87 199.22,75.76 201.44,77.22 C203.66,78.68 205.48,80.80 207.09,82.94 C208.70,85.08 209.65,87.92 211.12,90.06 C212.59,92.20 213.92,94.41 215.91,95.78 C217.89,97.16 220.46,97.88 223.02,98.33 C225.59,98.78 228.74,98.80 231.29,98.46 C233.83,98.11 236.51,97.54 238.29,96.26 C240.08,94.98 241.32,93.00 241.99,90.77 C242.66,88.55 242.57,85.63 242.32,82.91 C242.08,80.18 241.37,77.19 240.51,74.42 C239.66,71.64 238.53,68.85 237.20,66.24 C235.87,63.64 234.29,61.10 232.52,58.77 C230.75,56.44 228.74,54.25 226.57,52.28 C224.41,50.31 222.02,48.52 219.54,46.96 C217.06,45.39 214.42,43.99 211.72,42.88 C209.02,41.77 206.20,40.90 203.34,40.30 C200.49,39.69 197.53,39.46 194.58,39.24 C191.63,39.03 188.63,39.06 185.65,39.02 C182.67,38.98 179.67,39.00 176.68,39.00 C173.69,39.00 170.70,39.00 167.71,39.00 C164.72,39.00 161.73,39.00 158.74,39.00 C155.75,39.00 152.76,39.00 149.77,39.00 C146.78,39.00 143.79,39.00 140.80,39.00 C137.81,39.00 134.82,39.00 131.83,39.00 C128.84,39.00 125.85,39.00 122.86,39.00 C119.87,39.00 116.88,39.00 113.89,39.00 C110.90,39.01 107.91,39.00 104.92,39.03 C101.93,39.06 98.94,39.07 95.96,39.19 C92.98,39.30 89.99,39.41 87.04,39.72 Z M84.09,42.15 C87.02,41.68 90.01,41.48 92.99,41.29 C95.97,41.11 98.97,41.09 101.96,41.04 C104.96,40.99 107.96,41.01 110.96,41.00 C113.96,41.00 116.96,41.00 119.96,41.00 C122.95,41.00 125.95,41.00 128.95,41.00 C131.95,41.00 134.95,41.00 137.95,41.00 C140.95,41.00 143.95,41.00 146.95,41.00 C149.95,41.00 152.95,41.00 155.95,41.00 C158.95,41.00 161.94,41.00 164.94,41.00 C167.94,41.00 170.94,41.00 173.94,41.00 C176.94,41.00 179.94,40.98 182.94,41.01 C185.93,41.04 188.94,41.00 191.91,41.17 C194.87,41.34 197.85,41.50 200.73,42.04 C203.61,42.57 206.47,43.32 209.19,44.37 C211.91,45.43 214.56,46.80 217.05,48.35 C219.55,49.89 221.95,51.71 224.15,53.65 C226.36,55.60 228.45,57.75 230.28,60.04 C232.11,62.33 233.78,64.81 235.15,67.39 C236.51,69.97 237.65,72.78 238.47,75.53 C239.30,78.28 240.00,81.30 240.11,83.89 C240.22,86.48 240.09,89.17 239.13,91.07 C238.17,92.98 236.40,94.44 234.37,95.32 C232.33,96.19 229.40,96.48 226.92,96.32 C224.44,96.16 221.65,95.56 219.48,94.38 C217.31,93.20 215.57,91.25 213.91,89.23 C212.24,87.21 211.12,84.43 209.47,82.24 C207.82,80.05 206.15,77.72 204.01,76.09 C201.87,74.46 199.28,73.32 196.62,72.46 C193.96,71.61 190.97,71.32 188.05,70.96 C185.14,70.61 182.12,70.48 179.13,70.33 C176.15,70.18 173.15,70.12 170.15,70.07 C167.16,70.01 164.16,70.02 161.16,70.01 C158.16,70.00 155.16,70.00 152.16,70.00 C149.16,70.00 146.16,70.00 143.16,70.00 C140.17,70.00 137.17,70.00 134.17,70.00 C131.17,70.00 128.17,70.00 125.17,70.00 C122.17,70.00 119.17,69.99 116.17,70.00 C113.17,70.01 110.17,70.00 107.18,70.05 C104.18,70.11 101.17,70.13 98.21,70.34 C95.24,70.54 92.21,70.70 89.39,71.26 C86.57,71.82 83.68,72.46 81.29,73.71 C78.90,74.96 76.67,76.67 75.04,78.74 C73.42,80.81 72.32,83.48 71.53,86.14 C70.73,88.81 70.53,91.83 70.27,94.75 C70.00,97.67 70.05,100.70 69.95,103.69 C69.85,106.68 69.79,109.68 69.68,112.67 C69.57,115.66 69.40,118.65 69.29,121.65 C69.19,124.64 69.11,127.63 69.06,130.63 C69.01,133.63 69.01,136.63 69.01,139.62 C69.01,142.62 69.01,145.62 69.05,148.62 C69.10,151.62 69.18,154.61 69.28,157.60 C69.38,160.60 69.55,163.59 69.66,166.58 C69.77,169.57 69.84,172.57 69.94,175.56 C70.04,178.54 69.99,181.58 70.25,184.49 C70.52,187.41 70.73,190.41 71.55,193.05 C72.38,195.68 73.53,198.28 75.21,200.28 C76.89,202.29 79.20,203.90 81.63,205.07 C84.07,206.24 87.00,206.80 89.84,207.31 C92.68,207.82 95.72,207.91 98.69,208.12 C101.65,208.33 104.66,208.44 107.65,208.56 C110.64,208.69 113.63,208.79 116.63,208.86 C119.63,208.93 122.62,208.96 125.62,208.98 C128.62,209.00 131.62,208.99 134.62,209.00 C137.62,209.00 140.62,209.00 143.62,209.00 C146.62,209.00 149.62,209.01 152.61,209.00 C155.61,208.99 158.64,209.04 161.59,208.96 C164.55,208.87 167.60,208.94 170.37,208.50 C173.14,208.07 175.85,207.53 178.22,206.35 C180.58,205.17 182.54,203.32 184.56,201.44 C186.58,199.56 188.29,197.11 190.32,195.07 C192.36,193.02 194.54,191.01 196.76,189.16 C198.97,187.32 201.54,185.81 203.61,183.99 C205.67,182.16 207.60,180.30 209.17,178.20 C210.74,176.11 211.60,173.48 213.04,171.41 C214.47,169.33 215.79,167.13 217.77,165.75 C219.74,164.36 222.39,163.49 224.89,163.12 C227.39,162.74 230.47,162.82 232.78,163.48 C235.09,164.14 237.30,165.34 238.74,167.09 C240.18,168.83 240.81,171.40 241.42,173.97 C242.02,176.55 242.00,179.64 242.36,182.53 C242.73,185.42 243.07,188.40 243.62,191.31 C244.16,194.21 245.03,197.07 245.62,199.96 C246.21,202.84 246.95,205.72 247.16,208.61 C247.37,211.50 247.35,214.46 246.91,217.29 C246.46,220.13 245.64,223.00 244.50,225.62 C243.35,228.25 241.82,230.82 240.03,233.04 C238.24,235.26 236.09,237.32 233.76,238.94 C231.44,240.55 228.79,241.85 226.09,242.72 C223.40,243.59 220.45,244.04 217.58,244.17 C214.71,244.31 211.76,244.00 208.89,243.54 C206.02,243.08 203.20,242.11 200.36,241.40 C197.51,240.68 194.70,239.77 191.82,239.25 C188.93,238.72 185.98,238.44 183.03,238.24 C180.07,238.03 177.06,238.06 174.07,238.02 C171.08,237.98 168.08,238.01 165.08,238.00 C162.08,237.99 159.08,238.00 156.08,237.98 C153.08,237.96 150.08,237.94 147.09,237.88 C144.09,237.81 141.10,237.70 138.11,237.60 C135.11,237.49 132.12,237.33 129.13,237.24 C126.13,237.15 123.14,237.08 120.14,237.04 C117.15,237.01 114.15,237.01 111.15,237.00 C108.15,237.00 105.15,237.00 102.15,237.00 C99.15,236.99 96.15,237.02 93.16,236.98 C90.16,236.93 87.15,236.97 84.20,236.74 C81.25,236.51 78.28,236.27 75.45,235.61 C72.62,234.94 69.83,234.00 67.21,232.75 C64.59,231.50 62.07,229.88 59.75,228.11 C57.42,226.34 55.21,224.29 53.25,222.12 C51.29,219.95 49.47,217.57 47.96,215.07 C46.46,212.57 45.21,209.88 44.24,207.13 C43.27,204.37 42.65,201.46 42.15,198.55 C41.65,195.64 41.46,192.64 41.23,189.67 C41.01,186.69 40.94,183.69 40.80,180.70 C40.66,177.71 40.51,174.72 40.40,171.73 C40.29,168.74 40.18,165.74 40.12,162.75 C40.05,159.75 40.04,156.75 40.02,153.75 C40.00,150.76 40.00,147.76 40.00,144.76 C40.00,141.76 40.00,138.76 40.00,135.76 C40.00,132.76 40.00,129.76 40.00,126.76 C40.00,123.76 40.00,120.76 40.00,117.76 C40.01,114.77 40.00,111.77 40.04,108.77 C40.08,105.77 40.11,102.77 40.23,99.78 C40.36,96.79 40.49,93.80 40.80,90.83 C41.10,87.87 41.43,84.89 42.04,82.00 C42.65,79.10 43.41,76.22 44.45,73.46 C45.48,70.71 46.75,68.00 48.24,65.47 C49.74,62.95 51.48,60.51 53.41,58.31 C55.34,56.11 57.52,54.07 59.83,52.27 C62.14,50.47 64.67,48.85 67.27,47.49 C69.87,46.14 72.64,45.01 75.44,44.11 C78.25,43.22 81.17,42.62 84.09,42.15 Z" fill="#000" fill-rule="evenodd"/>
  <path d="M347.21,35.77 C344.37,36.27 341.51,37.20 338.85,38.37 C336.19,39.55 333.59,41.10 331.25,42.85 C328.91,44.60 326.71,46.66 324.82,48.89 C322.94,51.11 321.25,53.61 319.94,56.20 C318.62,58.79 317.59,61.61 316.91,64.44 C316.23,67.27 315.89,70.27 315.87,73.19 C315.84,76.10 316.13,79.10 316.76,81.95 C317.38,84.80 318.35,87.64 319.60,90.28 C320.85,92.91 322.45,95.46 324.26,97.76 C326.07,100.05 328.19,102.20 330.46,104.03 C332.73,105.86 335.26,107.50 337.88,108.74 C340.50,109.97 343.34,110.92 346.19,111.45 C349.03,111.99 352.03,112.14 354.92,111.96 C357.82,111.77 360.79,111.21 363.57,110.35 C366.36,109.50 369.13,108.30 371.65,106.84 C374.17,105.38 376.60,103.60 378.72,101.61 C380.83,99.61 382.76,97.31 384.35,94.87 C385.95,92.44 387.28,89.73 388.28,86.99 C389.28,84.25 389.98,81.32 390.35,78.43 C390.73,75.53 390.79,72.53 390.52,69.62 C390.25,66.72 389.64,63.77 388.73,61.01 C387.81,58.24 386.55,55.51 385.01,53.04 C383.48,50.57 381.61,48.22 379.53,46.18 C377.46,44.15 375.07,42.32 372.57,40.82 C370.07,39.32 367.32,38.07 364.55,37.16 C361.78,36.26 358.83,35.62 355.94,35.39 C353.05,35.16 350.06,35.28 347.21,35.77 Z M348.16,37.73 C350.95,37.31 353.89,37.25 356.70,37.56 C359.51,37.86 362.37,38.57 365.02,39.58 C367.67,40.59 370.26,41.99 372.60,43.61 C374.94,45.23 377.15,47.20 379.07,49.32 C380.98,51.44 382.73,53.82 384.10,56.31 C385.46,58.80 386.54,61.51 387.24,64.25 C387.94,67.00 388.27,69.93 388.31,72.78 C388.36,75.64 388.08,78.59 387.50,81.39 C386.92,84.18 386.02,86.99 384.81,89.57 C383.61,92.15 382.06,94.66 380.28,96.86 C378.49,99.07 376.37,101.12 374.10,102.81 C371.82,104.50 369.25,105.93 366.63,107.01 C364.00,108.08 361.15,108.85 358.34,109.27 C355.52,109.68 352.58,109.78 349.76,109.51 C346.93,109.23 344.07,108.59 341.41,107.62 C338.74,106.65 336.14,105.29 333.79,103.69 C331.44,102.09 329.22,100.13 327.31,98.02 C325.40,95.91 323.68,93.52 322.33,91.02 C320.99,88.52 319.93,85.78 319.24,83.02 C318.54,80.27 318.20,77.34 318.17,74.48 C318.14,71.62 318.45,68.67 319.05,65.88 C319.65,63.08 320.57,60.27 321.78,57.70 C323.00,55.12 324.55,52.62 326.34,50.41 C328.13,48.20 330.25,46.14 332.51,44.42 C334.78,42.70 337.32,41.21 339.93,40.09 C342.54,38.98 345.36,38.15 348.16,37.73 Z" fill="#000" fill-rule="evenodd"/>
</svg>